<svg width="123" height="56" viewBox="0 0 123 56" fill="none" xmlns="http://www.w3.org/2000/svg">
<path d="M30.9837 32.3885V23.9928H28.8814V30.2896H10.9033C11.6308 29.412 12.0628 28.3216 12.0628 27.1412C12.0628 24.2479 9.46927 21.8939 6.28139 21.8939H3.65349V23.9928H6.28139C8.31004 23.9928 9.96046 25.4052 9.96046 27.1412C9.96046 28.8772 8.31004 30.2896 6.28139 30.2896H0.5V32.3885H6.28139C7.96732 32.3885 9.48669 31.7298 10.5444 30.6815V32.3885H30.9837Z" fill="#2D1B5E"/>
<path d="M24.4137 37.6358C25.1394 37.6358 25.7277 37.0484 25.7277 36.3239C25.7277 35.5994 25.1394 35.0121 24.4137 35.0121C23.6881 35.0121 23.0998 35.5994 23.0998 36.3239C23.0998 37.0484 23.6881 37.6358 24.4137 37.6358Z" fill="#2D1B5E"/>
<path d="M20.7349 37.6358C21.4605 37.6358 22.0488 37.0484 22.0488 36.3239C22.0488 35.5994 21.4605 35.0121 20.7349 35.0121C20.0092 35.0121 19.4209 35.5994 19.4209 36.3239C19.4209 37.0484 20.0092 37.6358 20.7349 37.6358Z" fill="#2D1B5E"/>
<path d="M47.8021 21.8939C44.3193 21.8939 41.4952 24.2435 41.4952 27.1412C41.4952 28.3225 41.9648 29.4125 42.7568 30.2896H37.2905V23.9928H35.1882V32.3884C35.1882 34.1244 33.5378 35.5368 31.5091 35.5368H29.9324V37.6357H31.5091C34.697 37.6357 37.2905 35.2818 37.2905 32.3885H47.8021C51.285 32.3885 54.1091 30.0388 54.1091 27.1412C54.1091 24.2435 51.285 21.8939 47.8021 21.8939ZM47.8021 30.2896C45.4802 30.2896 43.5975 28.8798 43.5975 27.1412C43.5975 25.4026 45.4802 23.9928 47.8021 23.9928C50.124 23.9928 52.0068 25.4026 52.0068 27.1412C52.0068 28.8798 50.124 30.2896 47.8021 30.2896Z" fill="#2D1B5E"/>
<path d="M49.2212 19.0136L48.531 18.6695C48.5031 18.6552 48.4788 18.6373 48.4566 18.6159C48.4352 18.5938 48.4173 18.5695 48.403 18.5416L48.0582 17.8525C47.9524 17.6419 47.652 17.6419 47.5461 17.8525L47.2013 18.5416C47.1871 18.5695 47.1692 18.5938 47.1477 18.6159C47.1255 18.6373 47.1012 18.6552 47.0733 18.6695L46.3831 19.0136C46.1721 19.1193 46.1721 19.4192 46.3831 19.5249L47.0733 19.8691C47.1012 19.8834 47.1255 19.9013 47.1477 19.9227C47.1692 19.9448 47.1871 19.9691 47.2013 19.997L47.5461 20.686C47.652 20.8967 47.9524 20.8967 48.0582 20.686L48.403 19.997C48.4173 19.9691 48.4352 19.9448 48.4566 19.9227C48.4788 19.9013 48.5031 19.8834 48.531 19.8691L49.2212 19.5249C49.4322 19.4192 49.4322 19.1193 49.2212 19.0136Z" fill="#2D1B5E"/>
<path d="M119.72 32.1563L107.594 38.2031C107.104 38.454 106.677 38.7677 106.287 39.144L94.7897 27.6652L106.287 16.1864C106.677 16.5627 107.104 16.8763 107.594 17.1273L119.72 23.174C123.427 25.0307 123.427 30.2997 119.72 32.1563Z" fill="#00DDC2"/>
<path d="M94.7898 27.6652L83.2923 39.144C82.9027 38.7677 82.4756 38.454 81.9855 38.2031L69.8597 32.1563C66.1529 30.2997 66.1529 25.0307 69.8597 23.174L81.9855 17.1273C82.4756 16.8763 82.9027 16.5627 83.2923 16.1864L94.7898 27.6652Z" fill="#FF3381"/>
<path d="M106.287 39.1441C105.91 39.533 105.596 39.9595 105.345 40.4488L99.2884 52.5549C97.4286 56.2557 92.1511 56.2557 90.2914 52.5549L84.2348 40.4488C83.9835 39.9595 83.6694 39.533 83.2924 39.1441L94.7899 27.6653L106.287 39.1441Z" fill="#FFC046"/>
<path d="M106.287 16.1864L94.7899 27.6653L83.2924 16.1864C83.6694 15.7975 83.9835 15.3709 84.2348 14.8817L90.2914 2.77563C92.1511 -0.92521 97.4286 -0.92521 99.2884 2.77563L105.345 14.8817C105.596 15.3709 105.91 15.7975 106.287 16.1864Z" fill="#2F83FE"/>
</svg>
