<svg width="26" height="27" viewBox="0 0 26 27" fill="none" xmlns="http://www.w3.org/2000/svg">
<rect y="0.745911" width="26" height="26" rx="13" fill="#E7E4F9"/>
<path fill-rule="evenodd" clip-rule="evenodd" d="M15.25 9.99591C15.7 9.99591 16 9.62091 16 9.24591V8.49591C16 8.04591 15.7 7.74591 15.25 7.74591C14.8 7.74591 14.5 8.04591 14.5 8.49591V9.24591C14.5 9.62091 14.8 9.99591 15.25 9.99591ZM17.5 8.49591H16.75V9.24591C16.75 10.0709 16.075 10.7459 15.25 10.7459C14.425 10.7459 13.75 10.0709 13.75 9.24591V8.49591H11.5V9.24591C11.5 10.0709 10.825 10.7459 10 10.7459C9.175 10.7459 8.5 10.0709 8.5 9.24591V8.49591H7.75C7.3 8.49591 7 8.87091 7 9.24591V18.2459C7 18.6959 7.3 18.9959 7.75 18.9959H17.5C17.95 18.9959 18.25 18.6959 18.25 18.2459V9.24591C18.25 8.79591 17.875 8.49591 17.5 8.49591ZM10.75 17.4959H8.5V15.2459H10.75V17.4959ZM10.75 14.4959H8.5V12.2459H10.75V14.4959ZM13.75 17.4959H11.5V15.2459H13.75V17.4959ZM13.75 14.4959H11.5V12.2459H13.75V14.4959ZM16.75 17.4959H14.5V15.2459H16.75V17.4959ZM16.75 14.4959H14.5V12.2459H16.75V14.4959ZM10 9.99591C10.45 9.99591 10.75 9.62091 10.75 9.24591V8.49591C10.75 8.04591 10.45 7.74591 10 7.74591C9.55 7.74591 9.25 8.04591 9.25 8.49591V9.24591C9.25 9.62091 9.55 9.99591 10 9.99591Z" fill="#6E62B6"/>
</svg>
