<svg width="25" height="25" viewBox="0 0 25 25" fill="none" xmlns="http://www.w3.org/2000/svg">
<path d="M7.625 16.5C8.02282 16.5 8.40436 16.342 8.68566 16.0607C8.96696 15.7794 9.125 15.3978 9.125 15C9.12988 14.9501 9.12988 14.8999 9.125 14.85L11.915 12.06H12.145H12.375L13.985 13.67C13.985 13.67 13.985 13.72 13.985 13.75C13.985 14.1478 14.143 14.5294 14.4243 14.8107C14.7056 15.092 15.0872 15.25 15.485 15.25C15.8828 15.25 16.2644 15.092 16.5457 14.8107C16.827 14.5294 16.985 14.1478 16.985 13.75V13.67L20.625 10C20.9217 10 21.2117 9.91203 21.4584 9.7472C21.705 9.58238 21.8973 9.34811 22.0108 9.07403C22.1243 8.79994 22.1541 8.49834 22.0962 8.20736C22.0383 7.91639 21.8954 7.64912 21.6857 7.43934C21.4759 7.22956 21.2086 7.0867 20.9176 7.02882C20.6267 6.97094 20.3251 7.00065 20.051 7.11418C19.7769 7.22771 19.5426 7.41997 19.3778 7.66664C19.213 7.91332 19.125 8.20333 19.125 8.5C19.1201 8.54988 19.1201 8.60012 19.125 8.65L15.515 12.26H15.355L13.625 10.5C13.625 10.1022 13.467 9.72064 13.1857 9.43934C12.9044 9.15804 12.5228 9 12.125 9C11.7272 9 11.3456 9.15804 11.0643 9.43934C10.783 9.72064 10.625 10.1022 10.625 10.5L7.625 13.5C7.22718 13.5 6.84564 13.658 6.56434 13.9393C6.28304 14.2206 6.125 14.6022 6.125 15C6.125 15.3978 6.28304 15.7794 6.56434 16.0607C6.84564 16.342 7.22718 16.5 7.625 16.5ZM21.125 20.5H4.125V3.5C4.125 3.23478 4.01964 2.98043 3.83211 2.79289C3.64457 2.60536 3.39022 2.5 3.125 2.5C2.85978 2.5 2.60543 2.60536 2.41789 2.79289C2.23036 2.98043 2.125 3.23478 2.125 3.5V21.5C2.125 21.7652 2.23036 22.0196 2.41789 22.2071C2.60543 22.3946 2.85978 22.5 3.125 22.5H21.125C21.3902 22.5 21.6446 22.3946 21.8321 22.2071C22.0196 22.0196 22.125 21.7652 22.125 21.5C22.125 21.2348 22.0196 20.9804 21.8321 20.7929C21.6446 20.6054 21.3902 20.5 21.125 20.5Z" fill="#9CA3AF"/>
</svg>
