<svg width="25" height="25" viewBox="0 0 25 25" fill="none" xmlns="http://www.w3.org/2000/svg">
<path d="M9.375 5.5H7.375C6.84457 5.5 6.33586 5.71071 5.96079 6.08579C5.58571 6.46086 5.375 6.96957 5.375 7.5V19.5C5.375 20.0304 5.58571 20.5391 5.96079 20.9142C6.33586 21.2893 6.84457 21.5 7.375 21.5H17.375C17.9054 21.5 18.4141 21.2893 18.7892 20.9142C19.1643 20.5391 19.375 20.0304 19.375 19.5V7.5C19.375 6.96957 19.1643 6.46086 18.7892 6.08579C18.4141 5.71071 17.9054 5.5 17.375 5.5H15.375M9.375 5.5C9.375 6.03043 9.58571 6.53914 9.96079 6.91421C10.3359 7.28929 10.8446 7.5 11.375 7.5H13.375C13.9054 7.5 14.4141 7.28929 14.7892 6.91421C15.1643 6.53914 15.375 6.03043 15.375 5.5M9.375 5.5C9.375 4.96957 9.58571 4.46086 9.96079 4.08579C10.3359 3.71071 10.8446 3.5 11.375 3.5H13.375C13.9054 3.5 14.4141 3.71071 14.7892 4.08579C15.1643 4.46086 15.375 4.96957 15.375 5.5M12.375 12.5H15.375M12.375 16.5H15.375M9.375 12.5H9.385M9.375 16.5H9.385" stroke="#9CA3AF" stroke-width="1.5" stroke-linecap="round" stroke-linejoin="round"/>
</svg>
