<svg width="25" height="25" viewBox="0 0 25 25" fill="none" xmlns="http://www.w3.org/2000/svg">
<path d="M17.915 23.25H6.335C3.595 23.25 1.375 21.02 1.375 18.28V10.87C1.375 9.50997 2.215 7.79997 3.295 6.95997L8.685 2.75997C10.305 1.49997 12.895 1.43997 14.575 2.61997L20.755 6.94997C21.945 7.77997 22.875 9.55997 22.875 11.01V18.29C22.875 21.02 20.655 23.25 17.915 23.25ZM9.605 3.93997L4.215 8.13997C3.505 8.69997 2.875 9.96997 2.875 10.87V18.28C2.875 20.19 4.425 21.75 6.335 21.75H17.915C19.825 21.75 21.375 20.2 21.375 18.29V11.01C21.375 10.05 20.685 8.71997 19.895 8.17997L13.715 3.84997C12.575 3.04997 10.695 3.08997 9.605 3.93997Z" fill="#887EF9"/>
<path d="M12.125 19.25C11.715 19.25 11.375 18.91 11.375 18.5V15.5C11.375 15.09 11.715 14.75 12.125 14.75C12.535 14.75 12.875 15.09 12.875 15.5V18.5C12.875 18.91 12.535 19.25 12.125 19.25Z" fill="#887EF9"/>
</svg>
