<svg width="40" height="41" viewBox="0 0 40 41" fill="none" xmlns="http://www.w3.org/2000/svg">
<rect y="0.753906" width="40" height="40" rx="12" fill="#007AFF" fill-opacity="0.15"/>
<path fill-rule="evenodd" clip-rule="evenodd" d="M23 15.7539C23.6 15.7539 24 15.2539 24 14.7539V13.7539C24 13.1539 23.6 12.7539 23 12.7539C22.4 12.7539 22 13.1539 22 13.7539V14.7539C22 15.2539 22.4 15.7539 23 15.7539ZM26 13.7539H25V14.7539C25 15.8539 24.1 16.7539 23 16.7539C21.9 16.7539 21 15.8539 21 14.7539V13.7539H18V14.7539C18 15.8539 17.1 16.7539 16 16.7539C14.9 16.7539 14 15.8539 14 14.7539V13.7539H13C12.4 13.7539 12 14.2539 12 14.7539V26.7539C12 27.3539 12.4 27.7539 13 27.7539H26C26.6 27.7539 27 27.3539 27 26.7539V14.7539C27 14.1539 26.5 13.7539 26 13.7539ZM17 25.7539H14V22.7539H17V25.7539ZM17 21.7539H14V18.7539H17V21.7539ZM21 25.7539H18V22.7539H21V25.7539ZM21 21.7539H18V18.7539H21V21.7539ZM25 25.7539H22V22.7539H25V25.7539ZM25 21.7539H22V18.7539H25V21.7539ZM16 15.7539C16.6 15.7539 17 15.2539 17 14.7539V13.7539C17 13.1539 16.6 12.7539 16 12.7539C15.4 12.7539 15 13.1539 15 13.7539V14.7539C15 15.2539 15.4 15.7539 16 15.7539Z" fill="#007AFF"/>
</svg>
