<svg width="40" height="40" viewBox="0 0 40 40" fill="none" xmlns="http://www.w3.org/2000/svg">
<rect width="40" height="40" rx="12" fill="#FF3381" fill-opacity="0.15"/>
<path fill-rule="evenodd" clip-rule="evenodd" d="M21.12 24.69C19.95 24.16 20.11 23.84 20.07 23.4C20.06 23.34 20.06 23.28 20.06 23.21C20.46 22.84 20.79 22.34 21 21.77C21 21.77 21.01 21.74 21.01 21.73C21.06 21.59 21.1 21.46 21.13 21.33C21.4 21.27 21.56 20.97 21.62 20.7C21.68 20.59 21.81 20.31 21.78 20C21.74 19.59 21.58 19.4 21.4 19.32C21.4 19.3 21.4 19.27 21.4 19.25C21.4 18.74 21.35 18 21.26 17.51C21.24 17.38 21.21 17.24 21.17 17.11C21 16.51 20.64 15.97 20.16 15.59C19.66 15.2 18.96 15 18.33 15C17.71 15 17 15.2 16.51 15.59C16.02 15.97 15.66 16.51 15.49 17.11C15.45 17.24 15.42 17.37 15.4 17.51C15.31 18 15.27 18.74 15.27 19.25C15.27 19.27 15.27 19.29 15.27 19.31C15.08 19.39 14.92 19.58 14.88 19.99C14.85 20.3 14.98 20.58 15.04 20.69C15.1 20.97 15.26 21.28 15.54 21.33C15.57 21.47 15.61 21.6 15.65 21.73C15.65 21.74 15.66 21.75 15.66 21.75V21.76C15.88 22.35 16.21 22.86 16.62 23.22C16.62 23.28 16.61 23.34 16.61 23.39C16.57 23.83 16.69 24.15 15.52 24.68C14.35 25.21 12.59 25.78 12.23 26.63C11.88 27.5 12.03 28 12.03 28H24.63C24.63 28 24.78 27.5 24.41 26.64C24.05 25.79 22.29 25.22 21.12 24.69ZM26.89 14H25.89V13C25.89 12.45 25.44 12 24.89 12C24.34 12 23.89 12.45 23.89 13V14H22.89C22.34 14 21.89 14.45 21.89 15C21.89 15.55 22.34 16 22.89 16H23.89V17C23.89 17.55 24.34 18 24.89 18C25.44 18 25.89 17.55 25.89 17V16H26.89C27.44 16 27.89 15.55 27.89 15C27.89 14.45 27.44 14 26.89 14Z" fill="#FF3381"/>
</svg>
