<svg width="26" height="27" viewBox="0 0 26 27" fill="none" xmlns="http://www.w3.org/2000/svg">
<rect y="0.245911" width="26" height="26" rx="13" fill="#E7E4F9"/>
<path d="M18.8333 11.8867C18.7965 11.78 18.7295 11.6863 18.6404 11.6169C18.5514 11.5476 18.4441 11.5055 18.3317 11.4959L15.0125 11.0117L13.525 7.9959C13.4772 7.89728 13.4026 7.8141 13.3098 7.7559C13.2169 7.69771 13.1096 7.66684 13 7.66684C12.8904 7.66684 12.783 7.69771 12.6902 7.7559C12.5973 7.8141 12.5228 7.89728 12.475 7.9959L10.9875 11.0059L7.66833 11.4959C7.56037 11.5112 7.45887 11.5565 7.37535 11.6267C7.29183 11.6968 7.22964 11.7889 7.19583 11.8926C7.16488 11.9939 7.1621 12.1017 7.1878 12.2045C7.21349 12.3072 7.26668 12.4011 7.34166 12.4759L9.75083 14.8092L9.1675 18.1226C9.14667 18.2319 9.15758 18.345 9.19892 18.4483C9.24027 18.5517 9.31033 18.6411 9.40083 18.7059C9.48904 18.769 9.59308 18.8062 9.70127 18.8134C9.80947 18.8206 9.91753 18.7975 10.0133 18.7467L13 17.1892L15.975 18.7526C16.0569 18.7988 16.1493 18.8229 16.2433 18.8226C16.3669 18.823 16.4874 18.7842 16.5875 18.7117C16.678 18.6469 16.7481 18.5575 16.7894 18.4542C16.8308 18.3508 16.8417 18.2378 16.8208 18.1284L16.2375 14.8151L18.6467 12.4817C18.7309 12.4104 18.7931 12.3166 18.8262 12.2113C18.8592 12.106 18.8617 11.9934 18.8333 11.8867ZM15.2458 14.2201C15.1774 14.2862 15.1262 14.3681 15.0968 14.4586C15.0673 14.5491 15.0604 14.6455 15.0767 14.7392L15.4967 17.1834L13.3033 16.0167C13.2189 15.9718 13.1248 15.9483 13.0292 15.9483C12.9335 15.9483 12.8394 15.9718 12.755 16.0167L10.5617 17.1834L10.9817 14.7392C10.998 14.6455 10.9911 14.5491 10.9616 14.4586C10.9321 14.3681 10.8809 14.2862 10.8125 14.2201L9.0625 12.4701L11.5183 12.1142C11.6128 12.1011 11.7027 12.065 11.78 12.009C11.8572 11.9531 11.9196 11.8791 11.9617 11.7934L13 9.5709L14.0967 11.7992C14.1387 11.8849 14.2011 11.9589 14.2784 12.0149C14.3557 12.0708 14.4455 12.1069 14.54 12.1201L16.9958 12.4759L15.2458 14.2201Z" fill="#6E62B6"/>
</svg>
