<svg width="20" height="21" viewBox="0 0 20 21" fill="none" xmlns="http://www.w3.org/2000/svg">
<path d="M18.094 11.16C17.9337 10.9775 17.8453 10.7429 17.8453 10.5C17.8453 10.2571 17.9337 10.0225 18.094 9.84002L19.374 8.40002C19.5151 8.24269 19.6027 8.04472 19.6242 7.83452C19.6458 7.62433 19.6002 7.4127 19.494 7.23002L17.494 3.77002C17.3889 3.58754 17.2289 3.44289 17.0368 3.3567C16.8446 3.27051 16.6302 3.24718 16.424 3.29002L14.544 3.67002C14.3048 3.71945 14.0558 3.67961 13.8439 3.55802C13.632 3.43643 13.472 3.2415 13.394 3.01002L12.784 1.18002C12.7169 0.981396 12.5891 0.808882 12.4186 0.686859C12.2482 0.564836 12.0437 0.499476 11.834 0.500017H7.83402C7.61595 0.488635 7.40015 0.548944 7.21958 0.671731C7.03901 0.794519 6.9036 0.973036 6.83402 1.18002L6.27402 3.01002C6.19602 3.2415 6.03599 3.43643 5.82413 3.55802C5.61227 3.67961 5.36324 3.71945 5.12402 3.67002L3.19402 3.29002C2.99857 3.2624 2.79932 3.29324 2.62137 3.37866C2.44341 3.46407 2.29472 3.60025 2.19402 3.77002L0.194019 7.23002C0.0851786 7.41067 0.0362407 7.6211 0.0542012 7.83124C0.0721617 8.04138 0.156101 8.24046 0.294018 8.40002L1.56402 9.84002C1.72434 10.0225 1.81275 10.2571 1.81275 10.5C1.81275 10.7429 1.72434 10.9775 1.56402 11.16L0.294018 12.6C0.156101 12.7596 0.0721617 12.9587 0.0542012 13.1688C0.0362407 13.3789 0.0851786 13.5894 0.194019 13.77L2.19402 17.23C2.29912 17.4125 2.45914 17.5571 2.65127 17.6433C2.8434 17.7295 3.05784 17.7529 3.26402 17.71L5.14402 17.33C5.38324 17.2806 5.63227 17.3204 5.84413 17.442C6.05599 17.5636 6.21602 17.7585 6.29402 17.99L6.90402 19.82C6.9736 20.027 7.10901 20.2055 7.28958 20.3283C7.47015 20.4511 7.68595 20.5114 7.90402 20.5H11.904C12.1137 20.5006 12.3182 20.4352 12.4886 20.3132C12.6591 20.1912 12.7869 20.0186 12.854 19.82L13.464 17.99C13.542 17.7585 13.702 17.5636 13.9139 17.442C14.1258 17.3204 14.3748 17.2806 14.614 17.33L16.494 17.71C16.7002 17.7529 16.9146 17.7295 17.1068 17.6433C17.2989 17.5571 17.4589 17.4125 17.564 17.23L19.564 13.77C19.6702 13.5873 19.7158 13.3757 19.6942 13.1655C19.6727 12.9553 19.5851 12.7573 19.444 12.6L18.094 11.16ZM16.604 12.5L17.404 13.4L16.124 15.62L14.944 15.38C14.2238 15.2328 13.4746 15.3551 12.8386 15.7238C12.2026 16.0925 11.7242 16.6819 11.494 17.38L11.114 18.5H8.55402L8.19402 17.36C7.96387 16.6619 7.4854 16.0725 6.84942 15.7038C6.21345 15.3351 5.46424 15.2128 4.74402 15.36L3.56402 15.6L2.26402 13.39L3.06402 12.49C3.55597 11.94 3.82795 11.2279 3.82795 10.49C3.82795 9.75208 3.55597 9.04004 3.06402 8.49002L2.26402 7.59002L3.54402 5.39002L4.72402 5.63002C5.44424 5.77724 6.19345 5.6549 6.82942 5.28622C7.4654 4.91753 7.94387 4.32818 8.17402 3.63002L8.55402 2.50002H11.114L11.494 3.64002C11.7242 4.33818 12.2026 4.92753 12.8386 5.29622C13.4746 5.6649 14.2238 5.78724 14.944 5.64002L16.124 5.40002L17.404 7.62002L16.604 8.52002C16.1176 9.06878 15.849 9.7767 15.849 10.51C15.849 11.2433 16.1176 11.9513 16.604 12.5ZM9.83402 6.50002C9.04289 6.50002 8.26953 6.73461 7.61174 7.17414C6.95394 7.61366 6.44125 8.23838 6.1385 8.96928C5.83575 9.70019 5.75654 10.5045 5.91088 11.2804C6.06522 12.0563 6.44618 12.769 7.00559 13.3284C7.565 13.8879 8.27773 14.2688 9.05366 14.4232C9.82958 14.5775 10.6338 14.4983 11.3648 14.1955C12.0957 13.8928 12.7204 13.3801 13.1599 12.7223C13.5994 12.0645 13.834 11.2911 13.834 10.5C13.834 9.43915 13.4126 8.42174 12.6624 7.67159C11.9123 6.92144 10.8949 6.50002 9.83402 6.50002ZM9.83402 12.5C9.43846 12.5 9.05178 12.3827 8.72288 12.163C8.39398 11.9432 8.13763 11.6308 7.98626 11.2654C7.83488 10.8999 7.79528 10.4978 7.87245 10.1098C7.94962 9.72187 8.1401 9.36551 8.4198 9.0858C8.69951 8.8061 9.05588 8.61562 9.44384 8.53845C9.8318 8.46128 10.2339 8.50088 10.5994 8.65226C10.9648 8.80363 11.2772 9.05998 11.497 9.38888C11.7167 9.71778 11.834 10.1045 11.834 10.5C11.834 11.0304 11.6233 11.5392 11.2482 11.9142C10.8732 12.2893 10.3645 12.5 9.83402 12.5Z" fill="#9CA3AF"/>
</svg>
