<svg width="26" height="27" viewBox="0 0 26 27" fill="none" xmlns="http://www.w3.org/2000/svg">
<rect y="0.245911" width="26" height="26" rx="13" fill="#E7E4F9"/>
<path fill-rule="evenodd" clip-rule="evenodd" d="M11.314 7.41583C11.314 8.42548 12.1129 9.24396 13.0983 9.24396C14.0838 9.24396 14.8827 8.42548 14.8827 7.41583C14.8827 6.40619 14.0838 5.58771 13.0983 5.58771C12.1129 5.58771 11.314 6.40619 11.314 7.41583ZM8.34036 12.2905V17.1661H9.52963V18.3846C9.52963 18.7213 9.2632 18.9943 8.93455 18.9943H7.74528C7.41696 18.9943 7.1502 18.721 7.1502 18.3846V15.338H5.96094V11.6818C5.96094 11.0081 6.49356 10.4624 7.1502 10.4624H8.95061C8.57233 10.9734 8.34036 11.6022 8.34036 12.2905ZM14.2876 20.2127H11.9091C11.5804 20.2127 11.314 19.9397 11.314 19.603V15.9468H9.52963V12.2905C9.52963 11.2809 10.3285 10.4624 11.314 10.4624H14.8827C15.8681 10.4624 16.667 11.2809 16.667 12.2905V15.9468H14.8827V19.603C14.8827 19.9397 14.6163 20.2127 14.2876 20.2127ZM7.15067 8.63473C7.15067 9.30792 7.68332 9.85364 8.34038 9.85364C8.99745 9.85364 9.5301 9.30792 9.5301 8.63473C9.5301 7.96155 8.99745 7.41583 8.34038 7.41583C7.68332 7.41583 7.15067 7.96155 7.15067 8.63473ZM17.8563 17.1661V12.2905C17.8563 11.6022 17.6243 10.9734 17.246 10.4624H19.0464C19.7031 10.4624 20.2357 11.0081 20.2357 11.6818V15.338H19.0464V18.3846C19.0464 18.7213 18.78 18.9943 18.4514 18.9943H17.2621C16.9334 18.9943 16.667 18.7213 16.667 18.3846V17.1661H17.8563ZM19.046 8.63473C19.046 9.30792 18.5134 9.85364 17.8563 9.85364C17.1992 9.85364 16.6666 9.30792 16.6666 8.63473C16.6666 7.96155 17.1992 7.41583 17.8563 7.41583C18.5134 7.41583 19.046 7.96155 19.046 8.63473Z" fill="#6E62B6"/>
</svg>
